<mxfile host="app.diagrams.net" agent="Mozilla/5.0 (Windows NT 10.0; Win64; x64) AppleWebKit/537.36 (KHTML, like Gecko) Chrome/134.0.0.0 YaBrowser/25.4.0.0 Safari/537.36" version="27.1.6">
  <diagram name="Страница — 1" id="PJCSPwj9tLLXIbPHKgU6">
    <mxGraphModel dx="994" dy="580" grid="1" gridSize="10" guides="1" tooltips="1" connect="1" arrows="1" fold="1" page="1" pageScale="1" pageWidth="827" pageHeight="1169" math="0" shadow="0">
      <root>
        <mxCell id="0" />
        <mxCell id="1" parent="0" />
        <mxCell id="DBBA7jFEFCVkwa8ZcQro-1" value="Client" style="rounded=1;whiteSpace=wrap;html=1;" parent="1" vertex="1">
          <mxGeometry y="30" width="120" height="60" as="geometry" />
        </mxCell>
        <mxCell id="DBBA7jFEFCVkwa8ZcQro-2" value="User Interface" style="rounded=1;whiteSpace=wrap;html=1;" parent="1" vertex="1">
          <mxGeometry x="140" y="30" width="120" height="60" as="geometry" />
        </mxCell>
        <mxCell id="DBBA7jFEFCVkwa8ZcQro-3" value="REST api" style="rounded=1;whiteSpace=wrap;html=1;" parent="1" vertex="1">
          <mxGeometry x="280" y="30" width="120" height="60" as="geometry" />
        </mxCell>
        <mxCell id="DBBA7jFEFCVkwa8ZcQro-4" value="Backend microservice" style="rounded=1;whiteSpace=wrap;html=1;" parent="1" vertex="1">
          <mxGeometry x="420" y="30" width="120" height="60" as="geometry" />
        </mxCell>
        <mxCell id="DBBA7jFEFCVkwa8ZcQro-5" value="gRPC" style="rounded=1;whiteSpace=wrap;html=1;" parent="1" vertex="1">
          <mxGeometry x="560" y="30" width="120" height="60" as="geometry" />
        </mxCell>
        <mxCell id="DBBA7jFEFCVkwa8ZcQro-6" value="Business logic microservice" style="rounded=1;whiteSpace=wrap;html=1;" parent="1" vertex="1">
          <mxGeometry x="690" y="110" width="120" height="60" as="geometry" />
        </mxCell>
        <mxCell id="DBBA7jFEFCVkwa8ZcQro-7" value="DataBase" style="rounded=1;whiteSpace=wrap;html=1;" parent="1" vertex="1">
          <mxGeometry x="690" y="220" width="120" height="60" as="geometry" />
        </mxCell>
        <mxCell id="qDYvJBYCVSirPPzR_eL7-1" value="" style="endArrow=classic;startArrow=classic;html=1;rounded=0;exitX=0.5;exitY=1;exitDx=0;exitDy=0;entryX=0.343;entryY=0.987;entryDx=0;entryDy=0;entryPerimeter=0;" edge="1" parent="1" source="DBBA7jFEFCVkwa8ZcQro-1" target="DBBA7jFEFCVkwa8ZcQro-2">
          <mxGeometry width="50" height="50" relative="1" as="geometry">
            <mxPoint x="390" y="200" as="sourcePoint" />
            <mxPoint x="440" y="150" as="targetPoint" />
            <Array as="points">
              <mxPoint x="60" y="140" />
              <mxPoint x="180" y="140" />
            </Array>
          </mxGeometry>
        </mxCell>
        <mxCell id="qDYvJBYCVSirPPzR_eL7-2" value="" style="endArrow=classic;startArrow=classic;html=1;rounded=0;exitX=0.5;exitY=1;exitDx=0;exitDy=0;entryX=0.343;entryY=0.987;entryDx=0;entryDy=0;entryPerimeter=0;" edge="1" parent="1">
          <mxGeometry width="50" height="50" relative="1" as="geometry">
            <mxPoint x="210" y="91" as="sourcePoint" />
            <mxPoint x="331" y="90" as="targetPoint" />
            <Array as="points">
              <mxPoint x="210" y="141" />
              <mxPoint x="330" y="141" />
            </Array>
          </mxGeometry>
        </mxCell>
        <mxCell id="qDYvJBYCVSirPPzR_eL7-3" value="" style="endArrow=classic;startArrow=classic;html=1;rounded=0;exitX=0.5;exitY=1;exitDx=0;exitDy=0;entryX=0.343;entryY=0.987;entryDx=0;entryDy=0;entryPerimeter=0;" edge="1" parent="1">
          <mxGeometry width="50" height="50" relative="1" as="geometry">
            <mxPoint x="350" y="91" as="sourcePoint" />
            <mxPoint x="471" y="90" as="targetPoint" />
            <Array as="points">
              <mxPoint x="350" y="141" />
              <mxPoint x="470" y="141" />
            </Array>
          </mxGeometry>
        </mxCell>
        <mxCell id="qDYvJBYCVSirPPzR_eL7-4" value="" style="endArrow=classic;startArrow=classic;html=1;rounded=0;exitX=0.5;exitY=1;exitDx=0;exitDy=0;entryX=0.343;entryY=0.987;entryDx=0;entryDy=0;entryPerimeter=0;" edge="1" parent="1">
          <mxGeometry width="50" height="50" relative="1" as="geometry">
            <mxPoint x="490" y="91" as="sourcePoint" />
            <mxPoint x="611" y="90" as="targetPoint" />
            <Array as="points">
              <mxPoint x="490" y="141" />
              <mxPoint x="610" y="141" />
            </Array>
          </mxGeometry>
        </mxCell>
        <mxCell id="qDYvJBYCVSirPPzR_eL7-5" value="" style="endArrow=classic;startArrow=classic;html=1;rounded=0;exitX=1;exitY=0.5;exitDx=0;exitDy=0;entryX=0.5;entryY=0;entryDx=0;entryDy=0;" edge="1" parent="1" source="DBBA7jFEFCVkwa8ZcQro-5" target="DBBA7jFEFCVkwa8ZcQro-6">
          <mxGeometry width="50" height="50" relative="1" as="geometry">
            <mxPoint x="390" y="200" as="sourcePoint" />
            <mxPoint x="440" y="150" as="targetPoint" />
            <Array as="points">
              <mxPoint x="750" y="60" />
            </Array>
          </mxGeometry>
        </mxCell>
        <mxCell id="qDYvJBYCVSirPPzR_eL7-6" value="" style="endArrow=classic;startArrow=classic;html=1;rounded=0;exitX=0.5;exitY=0;exitDx=0;exitDy=0;entryX=0.5;entryY=1;entryDx=0;entryDy=0;" edge="1" parent="1" source="DBBA7jFEFCVkwa8ZcQro-7" target="DBBA7jFEFCVkwa8ZcQro-6">
          <mxGeometry width="50" height="50" relative="1" as="geometry">
            <mxPoint x="390" y="200" as="sourcePoint" />
            <mxPoint x="440" y="150" as="targetPoint" />
          </mxGeometry>
        </mxCell>
      </root>
    </mxGraphModel>
  </diagram>
</mxfile>
